<svg width="22" height="34" viewBox="0 0 22 34" fill="none" xmlns="http://www.w3.org/2000/svg">
    <path
        d="M11 33.6667C8.05551 33.6667 5.65274 33.2245 3.79163 32.3403C1.93051 31.456 0.999959 30.3241 0.999959 28.9445C0.999959 28.1204 1.36107 27.3658 2.08329 26.6806C2.80551 25.9954 3.80087 25.4445 5.06938 25.0278L5.88883 27.6945C5.43514 27.8333 5.01847 28.0208 4.63883 28.257C4.2592 28.4931 3.97215 28.7222 3.77771 28.9445C4.2129 29.463 5.14346 29.9167 6.56938 30.3056C7.99532 30.6945 9.47218 30.8889 11 30.8889C12.5277 30.8889 14.0115 30.6945 15.4514 30.3056C16.8912 29.9167 17.8287 29.463 18.2639 28.9445C18.0694 28.7407 17.787 28.5208 17.4166 28.2847C17.0463 28.0486 16.625 27.8518 16.1528 27.6945L16.9444 25.0278C18.2129 25.4445 19.206 25.9954 19.9236 26.6806C20.6412 27.3658 21 28.1204 21 28.9445C21 30.3241 20.0694 31.456 18.2083 32.3403C16.3472 33.2245 13.9444 33.6667 11 33.6667ZM11 29.0556C10.6759 29.0556 10.3888 28.9607 10.1388 28.7708C9.88883 28.581 9.70828 28.3333 9.59717 28.0278C8.93978 26.0185 8.11571 24.3473 7.12496 23.0139C6.13421 21.6806 5.17125 20.4028 4.23608 19.1806C3.31014 17.9584 2.51615 16.6898 1.85413 15.375C1.1921 14.0602 0.861084 12.4259 0.861084 10.4722C0.861084 7.63888 1.84256 5.24074 3.8055 3.27779C5.76847 1.31482 8.16663 0.333332 11 0.333332C13.8333 0.333332 16.2314 1.31482 18.1944 3.27779C20.1574 5.24074 21.1388 7.63888 21.1388 10.4722C21.1388 12.4259 20.8101 14.0602 20.1528 15.375C19.4953 16.6898 18.699 17.9584 17.7638 19.1806C16.8379 20.4028 15.8773 21.6806 14.8819 23.0139C13.8865 24.3473 13.0601 26.0185 12.4028 28.0278C12.2916 28.3333 12.1111 28.581 11.8611 28.7708C11.6111 28.9607 11.324 29.0556 11 29.0556ZM11 13.3194C11.787 13.3194 12.4583 13.0417 13.0138 12.4861C13.5694 11.9306 13.8472 11.2593 13.8472 10.4722C13.8472 9.68518 13.5694 9.01389 13.0138 8.45833C12.4583 7.90281 11.787 7.62504 11 7.62504C10.2129 7.62504 9.54164 7.90281 8.98608 8.45833C8.43053 9.01389 8.15275 9.68518 8.15275 10.4722C8.15275 11.2593 8.43053 11.9306 8.98608 12.4861C9.54164 13.0417 10.2129 13.3194 11 13.3194Z"
        fill="#5B17C9" />
</svg>